<mxfile host="app.diagrams.net" modified="2023-10-23T20:27:39.187Z" agent="Mozilla/5.0 (Windows NT 10.0; Win64; x64) AppleWebKit/537.36 (KHTML, like Gecko) Chrome/116.0.5845.888 YaBrowser/23.9.2.888 Yowser/2.5 Safari/537.36" etag="-wi2doVaLZ4qWhGyAqPX" version="22.0.6" type="github">
  <diagram name="Страница — 1" id="YSo1yneblLqxXGrz5t49">
    <mxGraphModel dx="2291" dy="598" grid="1" gridSize="10" guides="1" tooltips="1" connect="1" arrows="1" fold="1" page="1" pageScale="1" pageWidth="827" pageHeight="1169" math="0" shadow="0">
      <root>
        <mxCell id="0" />
        <mxCell id="1" parent="0" />
        <mxCell id="_5BG1MepEr82ZfOV5Q4g-1" value="&lt;font style=&quot;font-size: 14px;&quot;&gt;Корректировка&amp;nbsp;&lt;br&gt;данных&lt;/font&gt;" style="rounded=0;whiteSpace=wrap;html=1;" vertex="1" parent="1">
          <mxGeometry x="324" y="250" width="180" height="110" as="geometry" />
        </mxCell>
        <mxCell id="_5BG1MepEr82ZfOV5Q4g-3" value="2" style="text;html=1;strokeColor=none;fillColor=none;align=center;verticalAlign=middle;whiteSpace=wrap;rounded=0;" vertex="1" parent="1">
          <mxGeometry x="460" y="330" width="60" height="30" as="geometry" />
        </mxCell>
        <mxCell id="_5BG1MepEr82ZfOV5Q4g-5" value="" style="endArrow=classic;html=1;rounded=0;entryX=0.542;entryY=0.991;entryDx=0;entryDy=0;entryPerimeter=0;" edge="1" parent="1" target="_5BG1MepEr82ZfOV5Q4g-1">
          <mxGeometry width="50" height="50" relative="1" as="geometry">
            <mxPoint x="422" y="570" as="sourcePoint" />
            <mxPoint x="440" y="290" as="targetPoint" />
          </mxGeometry>
        </mxCell>
        <mxCell id="_5BG1MepEr82ZfOV5Q4g-7" value="" style="endArrow=none;html=1;rounded=0;exitX=0.75;exitY=0;exitDx=0;exitDy=0;" edge="1" parent="1" source="_5BG1MepEr82ZfOV5Q4g-3">
          <mxGeometry width="50" height="50" relative="1" as="geometry">
            <mxPoint x="390" y="340" as="sourcePoint" />
            <mxPoint x="560" y="330" as="targetPoint" />
          </mxGeometry>
        </mxCell>
        <mxCell id="_5BG1MepEr82ZfOV5Q4g-8" value="" style="endArrow=none;html=1;rounded=0;" edge="1" parent="1">
          <mxGeometry width="50" height="50" relative="1" as="geometry">
            <mxPoint x="560" y="450" as="sourcePoint" />
            <mxPoint x="560" y="330" as="targetPoint" />
          </mxGeometry>
        </mxCell>
        <mxCell id="_5BG1MepEr82ZfOV5Q4g-9" value="" style="endArrow=classic;html=1;rounded=0;" edge="1" parent="1">
          <mxGeometry width="50" height="50" relative="1" as="geometry">
            <mxPoint x="560" y="450" as="sourcePoint" />
            <mxPoint x="640" y="450" as="targetPoint" />
          </mxGeometry>
        </mxCell>
        <mxCell id="_5BG1MepEr82ZfOV5Q4g-10" value="&lt;span style=&quot;font-size: 14px;&quot;&gt;Формирование отчетов&lt;/span&gt;" style="rounded=0;whiteSpace=wrap;html=1;" vertex="1" parent="1">
          <mxGeometry x="640" y="390" width="180" height="110" as="geometry" />
        </mxCell>
        <mxCell id="_5BG1MepEr82ZfOV5Q4g-12" value="" style="endArrow=none;html=1;rounded=0;" edge="1" parent="1">
          <mxGeometry width="50" height="50" relative="1" as="geometry">
            <mxPoint x="420" y="570" as="sourcePoint" />
            <mxPoint x="750" y="570" as="targetPoint" />
          </mxGeometry>
        </mxCell>
        <mxCell id="_5BG1MepEr82ZfOV5Q4g-13" value="" style="endArrow=classic;html=1;rounded=0;" edge="1" parent="1">
          <mxGeometry width="50" height="50" relative="1" as="geometry">
            <mxPoint x="750" y="570" as="sourcePoint" />
            <mxPoint x="750" y="500" as="targetPoint" />
          </mxGeometry>
        </mxCell>
        <mxCell id="_5BG1MepEr82ZfOV5Q4g-14" value="" style="endArrow=none;html=1;rounded=0;" edge="1" parent="1">
          <mxGeometry width="50" height="50" relative="1" as="geometry">
            <mxPoint x="420" y="570" as="sourcePoint" />
            <mxPoint x="120" y="570" as="targetPoint" />
          </mxGeometry>
        </mxCell>
        <mxCell id="_5BG1MepEr82ZfOV5Q4g-15" value="&lt;font style=&quot;font-size: 14px;&quot;&gt;Контент менеджер и отдел продаж&lt;/font&gt;" style="text;html=1;strokeColor=none;fillColor=none;align=center;verticalAlign=middle;whiteSpace=wrap;rounded=0;" vertex="1" parent="1">
          <mxGeometry x="360" y="580" width="130" height="30" as="geometry" />
        </mxCell>
        <mxCell id="_5BG1MepEr82ZfOV5Q4g-16" value="&lt;font style=&quot;font-size: 14px;&quot;&gt;Откорректированные данные&lt;/font&gt;" style="text;html=1;strokeColor=none;fillColor=none;align=center;verticalAlign=middle;whiteSpace=wrap;rounded=0;rotation=-90;" vertex="1" parent="1">
          <mxGeometry x="504" y="390" width="60" height="30" as="geometry" />
        </mxCell>
        <mxCell id="_5BG1MepEr82ZfOV5Q4g-17" value="3" style="text;html=1;strokeColor=none;fillColor=none;align=center;verticalAlign=middle;whiteSpace=wrap;rounded=0;" vertex="1" parent="1">
          <mxGeometry x="780" y="470" width="60" height="30" as="geometry" />
        </mxCell>
        <mxCell id="_5BG1MepEr82ZfOV5Q4g-18" value="" style="endArrow=classic;html=1;rounded=0;" edge="1" parent="1">
          <mxGeometry width="50" height="50" relative="1" as="geometry">
            <mxPoint x="820" y="420" as="sourcePoint" />
            <mxPoint x="1020" y="420" as="targetPoint" />
          </mxGeometry>
        </mxCell>
        <mxCell id="_5BG1MepEr82ZfOV5Q4g-19" value="&lt;font style=&quot;font-size: 14px;&quot;&gt;Статистика посещений сайта&lt;/font&gt;" style="text;html=1;strokeColor=none;fillColor=none;align=center;verticalAlign=middle;whiteSpace=wrap;rounded=0;" vertex="1" parent="1">
          <mxGeometry x="840" y="380" width="120" height="30" as="geometry" />
        </mxCell>
        <mxCell id="_5BG1MepEr82ZfOV5Q4g-22" value="" style="endArrow=classic;html=1;rounded=0;exitX=1.013;exitY=0.642;exitDx=0;exitDy=0;exitPerimeter=0;" edge="1" parent="1">
          <mxGeometry width="50" height="50" relative="1" as="geometry">
            <mxPoint x="820.0000000000001" y="470.6199999999999" as="sourcePoint" />
            <mxPoint x="1020" y="470" as="targetPoint" />
          </mxGeometry>
        </mxCell>
        <mxCell id="_5BG1MepEr82ZfOV5Q4g-23" value="&lt;font style=&quot;font-size: 14px;&quot;&gt;Количество проданных товаров&lt;/font&gt;" style="text;html=1;strokeColor=none;fillColor=none;align=center;verticalAlign=middle;whiteSpace=wrap;rounded=0;" vertex="1" parent="1">
          <mxGeometry x="830" y="440" width="220" height="30" as="geometry" />
        </mxCell>
        <mxCell id="_5BG1MepEr82ZfOV5Q4g-24" value="" style="endArrow=classic;html=1;rounded=0;exitX=1;exitY=0.089;exitDx=0;exitDy=0;exitPerimeter=0;" edge="1" parent="1" source="_5BG1MepEr82ZfOV5Q4g-1">
          <mxGeometry width="50" height="50" relative="1" as="geometry">
            <mxPoint x="520" y="450" as="sourcePoint" />
            <mxPoint x="1010" y="260" as="targetPoint" />
          </mxGeometry>
        </mxCell>
        <mxCell id="_5BG1MepEr82ZfOV5Q4g-26" value="&lt;font style=&quot;font-size: 14px;&quot;&gt;Статистика посещений сайта&lt;/font&gt;" style="text;html=1;strokeColor=none;fillColor=none;align=center;verticalAlign=middle;whiteSpace=wrap;rounded=0;" vertex="1" parent="1">
          <mxGeometry x="840" y="220" width="120" height="30" as="geometry" />
        </mxCell>
        <mxCell id="_5BG1MepEr82ZfOV5Q4g-27" value="" style="endArrow=classic;html=1;rounded=0;exitX=0.978;exitY=0.455;exitDx=0;exitDy=0;exitPerimeter=0;" edge="1" parent="1">
          <mxGeometry width="50" height="50" relative="1" as="geometry">
            <mxPoint x="503.99999999999994" y="300.04999999999995" as="sourcePoint" />
            <mxPoint x="1010" y="300" as="targetPoint" />
          </mxGeometry>
        </mxCell>
        <mxCell id="_5BG1MepEr82ZfOV5Q4g-28" value="&lt;font style=&quot;font-size: 14px;&quot;&gt;Выполнение плана продаж&lt;/font&gt;" style="text;html=1;strokeColor=none;fillColor=none;align=center;verticalAlign=middle;whiteSpace=wrap;rounded=0;" vertex="1" parent="1">
          <mxGeometry x="827" y="270" width="190" height="30" as="geometry" />
        </mxCell>
        <mxCell id="_5BG1MepEr82ZfOV5Q4g-29" value="" style="endArrow=classic;html=1;rounded=0;" edge="1" parent="1">
          <mxGeometry width="50" height="50" relative="1" as="geometry">
            <mxPoint x="120" y="570" as="sourcePoint" />
            <mxPoint x="120" y="280" as="targetPoint" />
          </mxGeometry>
        </mxCell>
        <mxCell id="_5BG1MepEr82ZfOV5Q4g-30" value="&lt;span style=&quot;font-size: 14px;&quot;&gt;Ввод данных&lt;/span&gt;" style="rounded=0;whiteSpace=wrap;html=1;" vertex="1" parent="1">
          <mxGeometry x="30" y="170" width="180" height="110" as="geometry" />
        </mxCell>
        <mxCell id="_5BG1MepEr82ZfOV5Q4g-31" value="" style="endArrow=classic;html=1;rounded=0;exitX=1.002;exitY=0.104;exitDx=0;exitDy=0;exitPerimeter=0;" edge="1" parent="1" source="_5BG1MepEr82ZfOV5Q4g-30">
          <mxGeometry width="50" height="50" relative="1" as="geometry">
            <mxPoint x="520" y="450" as="sourcePoint" />
            <mxPoint x="1000" y="181" as="targetPoint" />
          </mxGeometry>
        </mxCell>
        <mxCell id="_5BG1MepEr82ZfOV5Q4g-32" value="&lt;font style=&quot;font-size: 14px;&quot;&gt;Готовая карточка товара&lt;/font&gt;" style="text;html=1;strokeColor=none;fillColor=none;align=center;verticalAlign=middle;whiteSpace=wrap;rounded=0;" vertex="1" parent="1">
          <mxGeometry x="827" y="140" width="183" height="30" as="geometry" />
        </mxCell>
        <mxCell id="_5BG1MepEr82ZfOV5Q4g-34" value="" style="endArrow=none;html=1;rounded=0;" edge="1" parent="1">
          <mxGeometry width="50" height="50" relative="1" as="geometry">
            <mxPoint x="210" y="260" as="sourcePoint" />
            <mxPoint x="280" y="260" as="targetPoint" />
            <Array as="points">
              <mxPoint x="250" y="260" />
            </Array>
          </mxGeometry>
        </mxCell>
        <mxCell id="_5BG1MepEr82ZfOV5Q4g-35" value="" style="endArrow=none;html=1;rounded=0;" edge="1" parent="1">
          <mxGeometry width="50" height="50" relative="1" as="geometry">
            <mxPoint x="280" y="260" as="sourcePoint" />
            <mxPoint x="280" y="330" as="targetPoint" />
          </mxGeometry>
        </mxCell>
        <mxCell id="_5BG1MepEr82ZfOV5Q4g-37" value="1" style="text;html=1;strokeColor=none;fillColor=none;align=center;verticalAlign=middle;whiteSpace=wrap;rounded=0;" vertex="1" parent="1">
          <mxGeometry x="170" y="250" width="60" height="30" as="geometry" />
        </mxCell>
        <mxCell id="_5BG1MepEr82ZfOV5Q4g-39" value="&lt;font style=&quot;font-size: 14px;&quot;&gt;Общие сведения&lt;/font&gt;" style="text;html=1;strokeColor=none;fillColor=none;align=center;verticalAlign=middle;whiteSpace=wrap;rounded=0;rotation=-90;" vertex="1" parent="1">
          <mxGeometry x="230" y="280" width="60" height="30" as="geometry" />
        </mxCell>
        <mxCell id="_5BG1MepEr82ZfOV5Q4g-41" value="" style="endArrow=classic;html=1;rounded=0;" edge="1" parent="1">
          <mxGeometry width="50" height="50" relative="1" as="geometry">
            <mxPoint x="280" y="330" as="sourcePoint" />
            <mxPoint x="330" y="330" as="targetPoint" />
            <Array as="points">
              <mxPoint x="300" y="330" />
            </Array>
          </mxGeometry>
        </mxCell>
        <mxCell id="_5BG1MepEr82ZfOV5Q4g-45" value="" style="endArrow=classic;html=1;rounded=0;entryX=0.807;entryY=0.016;entryDx=0;entryDy=0;entryPerimeter=0;" edge="1" parent="1" target="_5BG1MepEr82ZfOV5Q4g-30">
          <mxGeometry width="50" height="50" relative="1" as="geometry">
            <mxPoint x="175" y="110" as="sourcePoint" />
            <mxPoint x="570" y="330" as="targetPoint" />
          </mxGeometry>
        </mxCell>
        <mxCell id="_5BG1MepEr82ZfOV5Q4g-46" value="" style="endArrow=none;html=1;rounded=0;" edge="1" parent="1">
          <mxGeometry width="50" height="50" relative="1" as="geometry">
            <mxPoint x="174" y="110" as="sourcePoint" />
            <mxPoint x="740" y="110" as="targetPoint" />
          </mxGeometry>
        </mxCell>
        <mxCell id="_5BG1MepEr82ZfOV5Q4g-47" value="" style="endArrow=classic;html=1;rounded=0;entryX=0.556;entryY=0;entryDx=0;entryDy=0;entryPerimeter=0;" edge="1" parent="1" target="_5BG1MepEr82ZfOV5Q4g-10">
          <mxGeometry width="50" height="50" relative="1" as="geometry">
            <mxPoint x="740" y="110" as="sourcePoint" />
            <mxPoint x="570" y="330" as="targetPoint" />
          </mxGeometry>
        </mxCell>
        <mxCell id="_5BG1MepEr82ZfOV5Q4g-48" value="&lt;font style=&quot;font-size: 14px;&quot;&gt;Положения компании&lt;/font&gt;" style="text;html=1;strokeColor=none;fillColor=none;align=center;verticalAlign=middle;whiteSpace=wrap;rounded=0;" vertex="1" parent="1">
          <mxGeometry x="180" y="110" width="160" height="30" as="geometry" />
        </mxCell>
        <mxCell id="_5BG1MepEr82ZfOV5Q4g-49" value="" style="endArrow=classic;html=1;rounded=0;entryX=0.5;entryY=0;entryDx=0;entryDy=0;" edge="1" parent="1" target="_5BG1MepEr82ZfOV5Q4g-30">
          <mxGeometry width="50" height="50" relative="1" as="geometry">
            <mxPoint x="120" y="80" as="sourcePoint" />
            <mxPoint x="570" y="340" as="targetPoint" />
          </mxGeometry>
        </mxCell>
        <mxCell id="_5BG1MepEr82ZfOV5Q4g-50" value="" style="endArrow=none;html=1;rounded=0;" edge="1" parent="1">
          <mxGeometry width="50" height="50" relative="1" as="geometry">
            <mxPoint x="120" y="80" as="sourcePoint" />
            <mxPoint x="680" y="80" as="targetPoint" />
          </mxGeometry>
        </mxCell>
        <mxCell id="_5BG1MepEr82ZfOV5Q4g-51" value="" style="endArrow=classic;html=1;rounded=0;entryX=0.213;entryY=-0.027;entryDx=0;entryDy=0;entryPerimeter=0;" edge="1" parent="1" target="_5BG1MepEr82ZfOV5Q4g-10">
          <mxGeometry width="50" height="50" relative="1" as="geometry">
            <mxPoint x="680" y="80" as="sourcePoint" />
            <mxPoint x="570" y="340" as="targetPoint" />
          </mxGeometry>
        </mxCell>
        <mxCell id="_5BG1MepEr82ZfOV5Q4g-52" value="&lt;font style=&quot;font-size: 14px;&quot;&gt;Должностная инструкция&lt;/font&gt;" style="text;html=1;strokeColor=none;fillColor=none;align=center;verticalAlign=middle;whiteSpace=wrap;rounded=0;" vertex="1" parent="1">
          <mxGeometry x="150" y="50" width="190" height="30" as="geometry" />
        </mxCell>
        <mxCell id="_5BG1MepEr82ZfOV5Q4g-55" value="" style="endArrow=classic;html=1;rounded=0;" edge="1" parent="1">
          <mxGeometry width="50" height="50" relative="1" as="geometry">
            <mxPoint x="80" y="80" as="sourcePoint" />
            <mxPoint x="80" y="170" as="targetPoint" />
          </mxGeometry>
        </mxCell>
        <mxCell id="_5BG1MepEr82ZfOV5Q4g-56" value="&lt;font style=&quot;font-size: 14px;&quot;&gt;Устав компании&lt;/font&gt;" style="text;html=1;strokeColor=none;fillColor=none;align=center;verticalAlign=middle;whiteSpace=wrap;rounded=0;rotation=-90;" vertex="1" parent="1">
          <mxGeometry y="90" width="120" height="30" as="geometry" />
        </mxCell>
        <mxCell id="_5BG1MepEr82ZfOV5Q4g-57" value="" style="endArrow=classic;html=1;rounded=0;" edge="1" parent="1">
          <mxGeometry width="50" height="50" relative="1" as="geometry">
            <mxPoint x="-140" y="190" as="sourcePoint" />
            <mxPoint x="30" y="190" as="targetPoint" />
          </mxGeometry>
        </mxCell>
        <mxCell id="_5BG1MepEr82ZfOV5Q4g-58" value="&lt;font style=&quot;font-size: 14px;&quot;&gt;Данные по категориям&lt;/font&gt;" style="text;html=1;strokeColor=none;fillColor=none;align=center;verticalAlign=middle;whiteSpace=wrap;rounded=0;" vertex="1" parent="1">
          <mxGeometry x="-140" y="160" width="170" height="30" as="geometry" />
        </mxCell>
        <mxCell id="_5BG1MepEr82ZfOV5Q4g-61" value="" style="endArrow=classic;html=1;rounded=0;entryX=-0.003;entryY=0.63;entryDx=0;entryDy=0;entryPerimeter=0;" edge="1" parent="1">
          <mxGeometry width="50" height="50" relative="1" as="geometry">
            <mxPoint x="-139.46" y="260" as="sourcePoint" />
            <mxPoint x="30.000000000000036" y="260.29999999999995" as="targetPoint" />
          </mxGeometry>
        </mxCell>
        <mxCell id="_5BG1MepEr82ZfOV5Q4g-62" value="&lt;font style=&quot;font-size: 14px;&quot;&gt;Данные по ценовому сегменту&lt;/font&gt;" style="text;html=1;strokeColor=none;fillColor=none;align=center;verticalAlign=middle;whiteSpace=wrap;rounded=0;" vertex="1" parent="1">
          <mxGeometry x="-150" y="220" width="150" height="30" as="geometry" />
        </mxCell>
        <mxCell id="_5BG1MepEr82ZfOV5Q4g-64" value="" style="endArrow=none;html=1;rounded=0;entryX=0.675;entryY=1.075;entryDx=0;entryDy=0;entryPerimeter=0;" edge="1" parent="1">
          <mxGeometry width="50" height="50" relative="1" as="geometry">
            <mxPoint y="350" as="sourcePoint" />
            <mxPoint y="190" as="targetPoint" />
          </mxGeometry>
        </mxCell>
        <mxCell id="_5BG1MepEr82ZfOV5Q4g-65" value="" style="endArrow=none;html=1;rounded=0;entryX=0.005;entryY=0.904;entryDx=0;entryDy=0;entryPerimeter=0;" edge="1" parent="1" target="_5BG1MepEr82ZfOV5Q4g-1">
          <mxGeometry width="50" height="50" relative="1" as="geometry">
            <mxPoint y="350" as="sourcePoint" />
            <mxPoint x="320" y="350" as="targetPoint" />
          </mxGeometry>
        </mxCell>
      </root>
    </mxGraphModel>
  </diagram>
</mxfile>
